<?xml version="1.0" encoding="UTF-8" standalone="no"?>
<!-- Generator: Adobe Illustrator 12.0.0, SVG Export Plug-In . SVG Version: 6.00 Build 51448)  -->
<svg
   xmlns:dc="http://purl.org/dc/elements/1.1/"
   xmlns:cc="http://web.resource.org/cc/"
   xmlns:rdf="http://www.w3.org/1999/02/22-rdf-syntax-ns#"
   xmlns:svg="http://www.w3.org/2000/svg"
   xmlns="http://www.w3.org/2000/svg"
   xmlns:sodipodi="http://sodipodi.sourceforge.net/DTD/sodipodi-0.dtd"
   xmlns:inkscape="http://www.inkscape.org/namespaces/inkscape"
   version="1.0"
   id="Layer_1"
   width="175.748"
   height="72.784996"
   viewBox="0 0 192.756 192.756"
   overflow="visible"
   enable-background="new 0 0 192.756 192.756"
   xml:space="preserve"
   sodipodi:version="0.32"
   inkscape:version="0.45.1"
   sodipodi:docname="American_Airlines[1].svg"
   inkscape:output_extension="org.inkscape.output.svg.inkscape"
   sodipodi:docbase="C:\Users\Virgile"><metadata
   id="metadata106"><rdf:RDF><cc:Work
       rdf:about=""><dc:format>image/svg+xml</dc:format><dc:type
         rdf:resource="http://purl.org/dc/dcmitype/StillImage" /></cc:Work></rdf:RDF></metadata><defs
   id="defs104">
	
	
	
	
	
	
	
	
	
	
	
	
	
	
	
	
	
	
	
	
	
	
	
	
	
	
	
	
	
	
	
	
	
	
	
	
	
	
	
	
	
	
	
	
	
	
	
	
	
</defs><sodipodi:namedview
   inkscape:window-height="575"
   inkscape:window-width="761"
   inkscape:pageshadow="2"
   inkscape:pageopacity="0.0"
   guidetolerance="10.0"
   gridtolerance="10.0"
   objecttolerance="10.0"
   borderopacity="1.0"
   bordercolor="#666666"
   pagecolor="#ffffff"
   id="base"
   inkscape:zoom="1.9558406"
   inkscape:cx="96.377998"
   inkscape:cy="96.377998"
   inkscape:window-x="69"
   inkscape:window-y="69"
   inkscape:current-layer="Layer_1" />

<g
   id="g2307"
   transform="matrix(2.6482931,0,0,2.6482931,-159.35685,-138.26841)"><path
     clip-rule="evenodd"
     d="M 65.74,104.54 L 58.325,104.54 L 70.339,70.846 L 78.457,70.846 L 90.33,104.54 L 82.681,104.54 L 80.522,97.595 L 68.086,97.595 L 65.74,104.54 L 65.74,104.54 z M 69.964,91.776 L 78.551,91.776 L 74.375,78.448 L 74.281,78.448 L 69.964,91.776 L 69.964,91.776 z "
     id="path7"
     style="fill:#ed1c24;fill-rule:evenodd" /><path
     clip-rule="evenodd"
     d="M 96.802,104.54 L 89.387,104.54 L 101.4,70.846 L 109.518,70.846 L 121.391,104.54 L 113.742,104.54 L 111.584,97.595 L 99.148,97.595 L 96.802,104.54 L 96.802,104.54 z M 101.025,91.776 L 109.612,91.776 L 105.435,78.448 L 105.341,78.448 L 101.025,91.776 L 101.025,91.776 z "
     id="path9"
     style="fill:#00529f;fill-rule:evenodd" /><path
     clip-rule="evenodd"
     d="M 12.176,125.017 L 8.504,125.017 L 14.454,108.33 L 18.475,108.33 L 24.355,125.017 L 20.567,125.017 L 19.498,121.578 L 13.339,121.578 L 12.176,125.017 L 12.176,125.017 z M 14.268,118.695 L 18.521,118.695 L 16.453,112.094 L 16.407,112.094 L 14.268,118.695 L 14.268,118.695 z "
     id="path11"
     style="fill:#ed1c24;fill-rule:evenodd" /><path
     clip-rule="evenodd"
     d="M 42.625,125.017 L 39.371,125.017 L 39.371,117.511 C 39.371,115.674 38.558,115.071 37.605,115.071 C 35.978,115.071 35.397,116.139 35.397,117.604 L 35.397,125.017 L 32.144,125.017 L 32.144,117.58 C 32.144,116.534 32.144,115.07 30.192,115.07 C 28.658,115.07 28.17,116.138 28.17,117.487 L 28.17,125.016 L 24.916,125.016 L 24.916,112.653 L 28.031,112.653 L 28.031,114.466 L 28.077,114.466 C 28.495,113.653 29.402,112.327 31.586,112.327 C 33.376,112.327 34.19,112.978 35.026,114.303 C 35.444,113.699 36.351,112.327 38.326,112.327 C 40.743,112.327 42.626,113.745 42.626,116.465 L 42.626,125.017 L 42.625,125.017 z "
     id="path13"
     style="fill:#ed1c24;fill-rule:evenodd" /><path
     clip-rule="evenodd"
     d="M 54.832,121.392 C 53.972,124.367 51.509,125.342 49.394,125.342 C 45.908,125.342 43.235,123.669 43.235,118.579 C 43.235,117.092 43.746,112.327 49.161,112.327 C 51.601,112.327 54.971,113.489 54.971,119.137 L 54.971,119.718 L 46.488,119.718 C 46.581,120.648 46.767,122.739 49.393,122.739 C 50.299,122.739 51.229,122.274 51.485,121.391 L 54.832,121.391 L 54.832,121.392 z M 51.625,117.604 C 51.439,115.605 50.161,115 49.115,115 C 47.581,115 46.768,115.977 46.582,117.604 L 51.625,117.604 L 51.625,117.604 z "
     id="path15"
     style="fill:#ed1c24;fill-rule:evenodd" /><path
     clip-rule="evenodd"
     d="M 55.718,112.653 L 58.832,112.653 L 58.832,114.791 L 58.879,114.791 C 59.553,113.536 60.296,112.327 62.272,112.327 C 62.481,112.327 62.69,112.35 62.899,112.374 L 62.899,115.674 C 62.621,115.628 62.272,115.628 61.97,115.628 C 59.437,115.628 58.972,117.208 58.972,118.579 L 58.972,125.017 L 55.719,125.017 L 55.719,112.653 L 55.718,112.653 z "
     id="path17"
     style="fill:#ed1c24;fill-rule:evenodd" /><path
     clip-rule="evenodd"
     d="M 66.735,112.653 L 66.735,125.016 L 63.481,125.016 L 63.481,112.653 L 66.735,112.653 L 66.735,112.653 z M 66.735,111.188 L 63.481,111.188 L 63.481,108.167 L 66.735,108.167 L 66.735,111.188 L 66.735,111.188 z "
     id="path19"
     style="fill:#ed1c24;fill-rule:evenodd" /><path
     clip-rule="evenodd"
     d="M 79.098,120.509 C 78.982,121.786 77.982,125.342 73.451,125.342 C 68.803,125.342 67.734,121.786 67.734,119.184 C 67.734,115.186 69.477,112.328 73.66,112.328 C 75.612,112.328 78.82,113.212 79.122,117.069 L 75.822,117.069 C 75.682,116.256 75.171,114.977 73.66,115.071 C 71.615,115.071 71.08,117.116 71.08,118.65 C 71.08,119.998 71.126,122.671 73.59,122.671 C 75.24,122.671 75.798,121.09 75.798,120.51 L 79.098,120.51 L 79.098,120.509 z "
     id="path21"
     style="fill:#ed1c24;fill-rule:evenodd" /><path
     clip-rule="evenodd"
     d="M 90,122.6 C 90,124.065 90.325,124.39 90.72,124.529 L 90.72,125.017 L 87.211,125.017 C 87.025,124.436 86.979,124.25 86.909,123.553 C 86.165,124.321 85.119,125.342 82.911,125.342 C 81.052,125.342 79.146,124.297 79.146,121.74 C 79.146,119.323 80.68,118.091 82.748,117.789 L 85.677,117.348 C 86.188,117.278 86.816,117.069 86.816,116.371 C 86.816,115 85.515,114.931 84.678,114.931 C 83.052,114.931 82.773,115.93 82.679,116.651 L 79.541,116.651 C 79.913,112.863 82.54,112.328 85.072,112.328 C 86.815,112.328 89.999,112.863 89.999,115.907 L 89.999,122.6 L 90,122.6 z M 86.816,118.998 C 86.49,119.254 85.956,119.462 84.608,119.672 C 83.399,119.881 82.4,120.183 82.4,121.531 C 82.4,122.67 83.283,123.018 83.911,123.018 C 85.351,123.018 86.816,122.088 86.816,120.578 L 86.816,118.998 L 86.816,118.998 z "
     id="path23"
     style="fill:#ed1c24;fill-rule:evenodd" /><path
     clip-rule="evenodd"
     d="M 102.691,125.017 L 99.437,125.017 L 99.437,117.511 C 99.437,116.604 99.391,115.071 97.323,115.071 C 95.882,115.071 94.766,116.047 94.766,117.929 L 94.766,125.017 L 91.513,125.017 L 91.513,112.654 L 94.627,112.654 L 94.627,114.467 L 94.673,114.467 C 95.114,113.723 96.044,112.328 98.392,112.328 C 100.809,112.328 102.691,113.746 102.691,116.466 L 102.691,125.017 L 102.691,125.017 z "
     id="path25"
     style="fill:#ed1c24;fill-rule:evenodd" /><path
     clip-rule="evenodd"
     d="M 106.946,125.017 L 103.274,125.017 L 109.223,108.33 L 113.244,108.33 L 119.124,125.017 L 115.336,125.017 L 114.267,121.578 L 108.109,121.578 L 106.946,125.017 L 106.946,125.017 z M 109.038,118.695 L 113.291,118.695 L 111.223,112.094 L 111.176,112.094 L 109.038,118.695 L 109.038,118.695 z "
     id="path27"
     style="fill:#00529f;fill-rule:evenodd" /><path
     clip-rule="evenodd"
     d="M 123.057,112.653 L 123.057,125.016 L 119.803,125.016 L 119.803,112.653 L 123.057,112.653 L 123.057,112.653 z M 123.057,111.188 L 119.803,111.188 L 119.803,108.167 L 123.057,108.167 L 123.057,111.188 L 123.057,111.188 z "
     id="path29"
     style="fill:#00529f;fill-rule:evenodd" /><path
     clip-rule="evenodd"
     d="M 124.751,112.653 L 127.865,112.653 L 127.865,114.791 L 127.912,114.791 C 128.586,113.536 129.329,112.327 131.305,112.327 C 131.515,112.327 131.723,112.35 131.933,112.374 L 131.933,115.674 C 131.654,115.628 131.305,115.628 131.003,115.628 C 128.47,115.628 128.005,117.208 128.005,118.579 L 128.005,125.017 L 124.751,125.017 L 124.751,112.653 L 124.751,112.653 z "
     id="path31"
     style="fill:#00529f;fill-rule:evenodd" /><polygon
     clip-rule="evenodd"
     points="135.769,125.017 132.515,125.017 132.515,108.33 135.769,108.33 135.769,125.017 "
     id="polygon33"
     style="fill:#00529f;fill-rule:evenodd" /><path
     clip-rule="evenodd"
     d="M 140.833,112.653 L 140.833,125.016 L 137.579,125.016 L 137.579,112.653 L 140.833,112.653 L 140.833,112.653 z M 140.833,111.188 L 137.579,111.188 L 137.579,108.167 L 140.833,108.167 L 140.833,111.188 L 140.833,111.188 z "
     id="path35"
     style="fill:#00529f;fill-rule:evenodd" /><path
     clip-rule="evenodd"
     d="M 153.729,125.017 L 150.476,125.017 L 150.476,117.511 C 150.476,116.604 150.429,115.071 148.361,115.071 C 146.921,115.071 145.804,116.047 145.804,117.929 L 145.804,125.017 L 142.55,125.017 L 142.55,112.654 L 145.665,112.654 L 145.665,114.467 L 145.711,114.467 C 146.152,113.723 147.082,112.328 149.43,112.328 C 151.847,112.328 153.729,113.746 153.729,116.466 L 153.729,125.017 L 153.729,125.017 z "
     id="path37"
     style="fill:#00529f;fill-rule:evenodd" /><path
     clip-rule="evenodd"
     d="M 165.979,121.392 C 165.119,124.367 162.655,125.342 160.541,125.342 C 157.055,125.342 154.382,123.669 154.382,118.579 C 154.382,117.092 154.894,112.327 160.309,112.327 C 162.749,112.327 166.12,113.489 166.12,119.137 L 166.12,119.718 L 157.637,119.718 C 157.73,120.648 157.916,122.739 160.542,122.739 C 161.448,122.739 162.378,122.274 162.634,121.391 L 165.979,121.391 L 165.979,121.392 z M 162.772,117.604 C 162.585,115.605 161.307,115 160.261,115 C 158.728,115 157.914,115.977 157.728,117.604 L 162.772,117.604 L 162.772,117.604 z "
     id="path39"
     style="fill:#00529f;fill-rule:evenodd" /><path
     clip-rule="evenodd"
     d="M 173.884,116.418 C 173.744,115.628 173.465,114.791 171.699,114.791 C 169.932,114.791 169.7,115.465 169.7,116 C 169.7,117.952 177.439,116.534 177.439,121.089 C 177.439,124.692 173.953,125.342 172.024,125.342 C 169.211,125.342 166.168,124.366 166.074,121.067 L 169.422,121.067 C 169.422,122.113 170.072,122.88 172.117,122.88 C 173.791,122.88 174.185,122.067 174.185,121.602 C 174.185,119.534 166.516,121.09 166.516,116.466 C 166.516,114.653 167.655,112.328 171.512,112.328 C 173.929,112.328 176.811,112.932 177.067,116.419 L 173.884,116.419 L 173.884,116.418 z "
     id="path41"
     style="fill:#00529f;fill-rule:evenodd" /><path
     clip-rule="evenodd"
     d="M 181.226,111.804 L 180.63,111.804 L 180.63,109.018 L 181.671,109.018 C 182.39,109.018 182.815,109.223 182.815,109.86 C 182.815,110.374 182.514,110.558 182.144,110.586 L 182.856,111.805 L 182.151,111.805 L 181.507,110.634 L 181.226,110.634 L 181.226,111.804 L 181.226,111.804 z M 181.753,110.16 C 182.021,110.16 182.178,110.105 182.178,109.798 C 182.178,109.51 181.869,109.489 181.644,109.489 L 181.226,109.489 L 181.226,110.16 L 181.753,110.16 L 181.753,110.16 z M 181.657,113.002 C 180.281,113.002 179.055,112.05 179.055,110.414 C 179.055,108.777 180.281,107.826 181.657,107.826 C 183.026,107.826 184.252,108.777 184.252,110.414 C 184.252,112.05 183.026,113.002 181.657,113.002 L 181.657,113.002 z M 181.657,108.429 C 180.63,108.429 179.802,109.223 179.802,110.414 C 179.802,111.605 180.63,112.406 181.657,112.399 L 181.657,112.406 C 182.657,112.406 183.506,111.605 183.506,110.414 C 183.506,109.223 182.657,108.429 181.657,108.429 L 181.657,108.429 z "
     id="path43"
     style="fill:#00529f;fill-rule:evenodd" /><path
     clip-rule="evenodd"
     d="M 94.701,79.417 L 87.202,53.314 L 86.253,56.256 C 86.253,56.256 85.968,56.731 86.348,57.3 L 85.778,57.68 L 85.303,59.388 C 85.303,59.388 85.113,60.053 85.588,60.432 L 85.019,60.621 C 85.019,60.621 84.26,62.425 84.734,63.374 L 85.114,63.564 L 84.639,64.039 L 85.114,65.843 C 85.114,65.843 84.925,66.222 85.684,66.507 L 85.304,67.171 L 85.874,69.069 C 85.874,69.069 86.063,69.639 86.538,69.828 C 87.013,70.018 86.159,70.398 86.159,70.398 L 86.823,72.296 C 86.823,72.296 86.823,72.675 87.488,72.675 L 87.108,73.244 L 89.576,81.597 C 89.576,81.597 90.43,81.312 90.43,81.787 L 90.62,82.262 L 89.291,82.737 L 92.328,82.737 C 92.328,82.737 90.904,82.357 90.999,81.598 L 91.474,79.795 C 91.474,79.795 92.043,79.13 92.613,79.795 L 94.321,82.263 C 94.321,82.263 94.89,82.643 94.321,83.117 C 94.321,83.117 95.65,81.977 95.081,81.409 C 95.081,81.411 95.365,80.082 94.701,79.417 L 94.701,79.417 z "
     id="path47"
     style="fill:#00529f;fill-rule:evenodd" /><path
     clip-rule="evenodd"
     d="M 87.25,76.04 L 88.389,80.169 C 88.389,80.169 87.653,80.24 87.487,80.193 C 87.321,80.146 87.226,79.766 87.226,79.766 L 87.084,80.217 C 87.084,80.217 86.443,80.289 86.23,80.241 C 86.017,80.194 85.969,79.695 85.969,79.695 C 85.969,79.695 85.874,80.17 85.708,80.194 C 85.542,80.217 84.877,80.194 84.877,80.194 L 87.25,76.04 L 87.25,76.04 z "
     id="path49"
     style="fill:#00529f;fill-rule:evenodd" /><path
     clip-rule="evenodd"
     d="M 91.347,64.99 C 91.347,64.99 94.099,74.862 94.385,75.052 L 97.422,63.757 C 97.422,63.757 98.087,62.334 97.233,60.91 L 94.67,52.557 L 93.626,56.781 C 93.626,56.781 93.816,57.094 93.816,57.398 C 93.816,58.252 94.053,57.683 94.053,57.683 L 93.294,57.778 L 92.867,59.344 L 93.246,59.866 C 93.246,59.866 92.819,59.866 92.629,60.103 L 92.296,61.811 L 92.676,62.381 C 92.676,62.381 92.201,62.334 91.964,62.761 L 91.347,64.99 L 91.347,64.99 z "
     id="path51"
     style="fill:#00529f;fill-rule:evenodd" /></g></svg>